<?xml version="1.0" encoding="utf-8"?>
<!-- Generator: Adobe Illustrator 27.0.0, SVG Export Plug-In . SVG Version: 6.00 Build 0)  -->
<svg version="1.1" id="Layer_1" xmlns="http://www.w3.org/2000/svg" xmlns:xlink="http://www.w3.org/1999/xlink" x="0px" y="0px"
	 viewBox="0 0 100 100" style="enable-background:new 0 0 100 100;" xml:space="preserve">
<style type="text/css">
	.st0{fill-rule:evenodd;clip-rule:evenodd;fill:#232323;}
</style>
<g>
	<path class="st0" d="M93.06,36.64H71.41L56.09,80.99L93.06,36.64z M67.09,36.64L67.09,36.64H32.91L50.2,84.94L67.09,36.64z
		 M28.55,36.64L28.55,36.64H6.94l36.97,44.36L28.55,36.64z M28.96,32.31L28.96,32.31L45.88,9.54H26.21L6.94,32.31H28.96z
		 M54.12,9.54L54.12,9.54l16.91,22.77h22.02L73.79,9.54H54.12z M65.93,32.31L65.93,32.31L50.2,11.14L34.07,32.31H65.93z M0.64,36.26
		L0.64,36.26c0-0.41-0.37-0.41-0.37-0.82c-0.41-0.75-0.41-1.56,0.37-2.35L23.45,6c0.41-0.37,1.19-0.78,1.56-0.78H50.2h24.75
		c0.41,0,1.19,0.41,1.6,0.78l22.81,27.1c0.78,0.79,0.78,1.6,0.38,2.35c0,0.41,0,0.41-0.38,0.82L51.77,92.81l0,0l-1.57,1.97
		L0.64,36.26z"/>
</g>
</svg>
