<?xml version="1.0" encoding="utf-8"?>
<!-- Generator: Adobe Illustrator 27.0.0, SVG Export Plug-In . SVG Version: 6.00 Build 0)  -->
<svg version="1.1" id="Layer_1" xmlns="http://www.w3.org/2000/svg" xmlns:xlink="http://www.w3.org/1999/xlink" x="0px" y="0px"
	 viewBox="0 0 100 100" style="enable-background:new 0 0 100 100;" xml:space="preserve">
<style type="text/css">
	.st0{fill-rule:evenodd;clip-rule:evenodd;fill:#232323;}
</style>
<g>
	<path class="st0" d="M69.76,82.97c-3.88,0-7.03,3.15-7.03,7.03c0,3.88,3.15,7.03,7.03,7.03c3.88,0,7.03-3.15,7.03-7.03
		C76.79,86.12,73.64,82.97,69.76,82.97z"/>
	<path class="st0" d="M42.83,82.97c-3.88,0-7.03,3.15-7.03,7.03c0,3.88,3.15,7.03,7.03,7.03c3.88,0,7.03-3.15,7.03-7.03
		C49.86,86.12,46.71,82.97,42.83,82.97z"/>
	<path class="st0" d="M97,20.68H23.55L21.57,6.01C21.29,3.88,20.1,2.97,18,2.97H3.52C1.57,2.97,0,4.55,0,6.49
		C0,8.43,1.57,10,3.52,10l11.47,0l8.22,49.99c1.37,8.6,3.34,16.94,14.52,16.94l38.67,0c11.32,0,12.57-8.08,14.6-16.21l8.63-34.51
		C100.28,23.55,100.45,20.68,97,20.68z M89.99,36.6H42.13c-1.93,0-3.52,1.58-3.52,3.52v0c0,1.93,1.58,3.52,3.52,3.52h46.1
		l-2.01,8.03h-35.5c-1.93,0-3.51,1.58-3.51,3.52v0c0,1.93,1.58,3.51,3.51,3.51h33.74l-0.37,1.49c-1.11,4.45-1.36,9.71-7.7,9.71
		H37.72c-6.69,0-6.86-6.02-7.66-10.8l-5.23-31.39h67.38L89.99,36.6z"/>
</g>
</svg>
