<?xml version="1.0" encoding="utf-8"?>
<!-- Generator: Adobe Illustrator 27.0.0, SVG Export Plug-In . SVG Version: 6.00 Build 0)  -->
<svg version="1.1" id="Layer_1" xmlns="http://www.w3.org/2000/svg" xmlns:xlink="http://www.w3.org/1999/xlink" x="0px" y="0px"
	 viewBox="0 0 100 100" style="enable-background:new 0 0 100 100;" xml:space="preserve">
<style type="text/css">
	.st0{fill:#FFFFFF;}
</style>
<g>
	<g>
		<g>
			<path class="st0" d="M35.47,99.82H19.15C8.59,99.82,0,91.23,0,80.68V19.34C0,8.77,8.59,0.18,19.15,0.18h16.33
				c4.26,0,7.72,3.46,7.72,7.72c0,4.26-3.46,7.72-7.72,7.72H19.15c-2.05,0-3.71,1.67-3.71,3.72v61.34c0,2.05,1.66,3.71,3.71,3.71
				h16.33c4.26,0,7.72,3.46,7.72,7.72C43.19,96.37,39.74,99.82,35.47,99.82z"/>
		</g>
		<path class="st0" d="M98.22,54.88c0.12-0.15,0.26-0.29,0.37-0.45c0.2-0.29,0.37-0.6,0.53-0.92c0.07-0.14,0.17-0.28,0.23-0.42
			c0.17-0.38,0.28-0.78,0.39-1.19c0.03-0.1,0.07-0.2,0.09-0.3c0.11-0.51,0.17-1.04,0.17-1.59c0-0.55-0.06-1.08-0.17-1.59
			c-0.02-0.1-0.07-0.2-0.09-0.3c-0.1-0.41-0.22-0.81-0.39-1.19c-0.06-0.15-0.16-0.28-0.23-0.42c-0.16-0.32-0.33-0.63-0.53-0.92
			c-0.11-0.16-0.25-0.3-0.37-0.45c-0.21-0.25-0.41-0.5-0.65-0.72c-0.04-0.04-0.08-0.09-0.12-0.14L73.14,22.34
			c-3.16-2.86-8.04-2.61-10.9,0.56c-2.86,3.16-2.61,8.04,0.56,10.9l9.41,8.49H37.25c-4.26,0-7.72,3.46-7.72,7.72
			s3.46,7.72,7.72,7.72h34.96l-9.41,8.49c-3.16,2.86-3.41,7.74-0.56,10.9c1.52,1.69,3.62,2.55,5.73,2.55c1.84,0,3.69-0.66,5.17-1.99
			l24.31-21.94c0.05-0.04,0.08-0.1,0.12-0.14C97.81,55.38,98.01,55.13,98.22,54.88z"/>
	</g>
</g>
</svg>
