<?xml version="1.0" encoding="utf-8"?>
<!-- Generator: Adobe Illustrator 27.0.0, SVG Export Plug-In . SVG Version: 6.00 Build 0)  -->
<svg version="1.1" id="Layer_1" xmlns="http://www.w3.org/2000/svg" xmlns:xlink="http://www.w3.org/1999/xlink" x="0px" y="0px"
	 viewBox="0 0 100 100" style="enable-background:new 0 0 100 100;" xml:space="preserve">
<style type="text/css">
	.st0{fill-rule:evenodd;clip-rule:evenodd;fill:#FFFFFF;}
</style>
<g>
	<g>
		<g>
			<path class="st0" d="M45.59,0.12C21.53,2.11,2.21,21.39,0.23,45.02c-1.57,17.72,5.12,31.1,14.2,40.59
				c9.49,9.05,22.49,15.74,40.62,14.17c12.63-0.79,22.87-6.69,30.38-14.17c7.48-7.1,12.6-17.34,14.58-29.94V44.64
				c-1.98-13-7.51-22.84-14.58-29.91C76.75,6.06,63.72-1.03,45.59,0.12L45.59,0.12z M45.18,37.54c0-2.35,2.36-4.34,4.34-4.71
				c4.34-0.38,6.72,3.52,7.89,6.69c2.76-0.78,5.15-2.36,7.89-3.17c-1.16-6.28-5.91-9.83-11.81-11.37V20.2h-6.31v5.15
				c-12.22,0.38-15.77,16.15-8.67,23.22c4.71,4.74,16.97,5.12,17.75,10.24c1.57,6.31-7.51,8.64-11.84,4.34
				c-1.2-1.57-1.2-3.17-1.95-5.5c-3.17,0.75-5.94,1.95-9.11,2.32c1.6,7.48,6.31,12.25,13.82,13.82v5.91h6.31
				c0-1.98-0.78-5.12,0-6.72c13.79-0.38,16.97-17.72,9.08-24.41C57.81,44.26,45.18,43.45,45.18,37.54L45.18,37.54z M56.62,89.12
				C32.18,93.46,8.52,74.58,10.5,45.83c0.78-7.48,3.92-13,5.91-16.55c5.9-9.08,14.58-16.93,29.18-18.5
				c11.43-1.2,20.89,1.95,27.2,6.69c8.67,5.91,15.77,15.36,16.97,28.37C91.71,69.83,75.56,86.36,56.62,89.12L56.62,89.12z"/>
		</g>
	</g>
</g>
</svg>
