<?xml version="1.0" encoding="utf-8"?>
<!-- Generator: Adobe Illustrator 27.0.0, SVG Export Plug-In . SVG Version: 6.00 Build 0)  -->
<svg version="1.1" id="Layer_1" xmlns="http://www.w3.org/2000/svg" xmlns:xlink="http://www.w3.org/1999/xlink" x="0px" y="0px"
	 viewBox="0 0 100 100" style="enable-background:new 0 0 100 100;" xml:space="preserve">
<style type="text/css">
	.st0{fill-rule:evenodd;clip-rule:evenodd;fill:#232323;}
</style>
<path class="st0" d="M73.23,12.5h-4.48C68.75,5.6,60.35,0,50,0C39.65,0,31.25,5.6,31.25,12.5h-4.48c-6.9,0-12.5,5.6-12.5,12.5
	l-2.66,62.5c0,6.9,5.6,12.5,12.5,12.5h51.77c6.9,0,12.5-5.6,12.5-12.5L85.73,25C85.73,18.1,80.13,12.5,73.23,12.5z M50,6.25
	c6.9,0,12.5,1.94,12.5,6.25h-25C37.5,8.18,43.1,6.25,50,6.25z M75.89,93.75l-51.77,0c-3.45,0-6.25-2.8-6.25-6.25L20.52,25
	c0-3.45,2.8-6.25,6.25-6.25l4.48,0v10.32c-3.96,0.32-3.71,6.24,0.26,6.24h5.74c3.97,0,4.21-5.92,0.26-6.24V18.75h25v10.32
	c-3.96,0.32-3.72,6.24,0.25,6.24h5.74c3.97,0,4.21-5.92,0.26-6.24V18.75h4.48c3.45,0,6.25,2.8,6.25,6.25l2.66,62.5
	C82.14,90.95,79.34,93.75,75.89,93.75z"/>
</svg>
