<?xml version="1.0" encoding="utf-8"?>
<!-- Generator: Adobe Illustrator 27.0.0, SVG Export Plug-In . SVG Version: 6.00 Build 0)  -->
<svg version="1.1" id="Layer_1" xmlns="http://www.w3.org/2000/svg" xmlns:xlink="http://www.w3.org/1999/xlink" x="0px" y="0px"
	 viewBox="0 0 100 100" style="enable-background:new 0 0 100 100;" xml:space="preserve">
<style type="text/css">
	.st0{fill-rule:evenodd;clip-rule:evenodd;fill:#232323;}
</style>
<path class="st0" d="M83.48,49.05c-1.74,0-2.87,1.13-2.87,2.99v41.57h-20.5V76.75c0-1.5-1.16-2.99-2.58-2.99H42.73
	c-1.71,0-3.13,1.49-3.13,2.99v16.85H19.36V53.53c0-1.86-1.42-2.99-2.85-2.99c-1.71,0-2.84,1.13-2.84,2.99v43.45
	c0,1.5,1.13,3.02,2.84,3.02h26.21c1.42,0,2.56-1.52,2.56-3.02V79.77h9.11v17.22c0,1.5,1.45,3.02,3.13,3.02h25.95
	c1.42,0,2.85-1.52,2.85-3.02V52.04C86.33,50.18,84.9,49.05,83.48,49.05L83.48,49.05z M99.13,51.29L99.13,51.29
	C80.32,31.06,68.65,18.71,51.84,1.11C51.29,0.36,50.71,0,50.13,0c-0.84,0-1.71,0.36-2.27,1.11L0.84,50.93
	C0.29,51.68,0,52.42,0,53.17c0,0.75,0.29,1.49,0.84,1.86c1.16,1.5,2.84,1.5,4,0L50.13,7.48l45.02,48.3c0.29,0.38,1.13,0.75,2,0.75
	c0.84,0,1.42-0.36,1.98-0.75C100.29,54.67,100.29,52.42,99.13,51.29L99.13,51.29z"/>
</svg>
