<?xml version="1.0" encoding="utf-8"?>
<!-- Generator: Adobe Illustrator 27.0.0, SVG Export Plug-In . SVG Version: 6.00 Build 0)  -->
<svg version="1.1" id="Layer_1" xmlns="http://www.w3.org/2000/svg" xmlns:xlink="http://www.w3.org/1999/xlink" x="0px" y="0px"
	 viewBox="0 0 100 100" style="enable-background:new 0 0 100 100;" xml:space="preserve">
<style type="text/css">
	.st0{fill-rule:evenodd;clip-rule:evenodd;fill:#FFFFFF;}
	.st1{fill:#FFFFFF;}
</style>
<rect class="st0" width="100" height="100"/>
<path class="st1" d="M6.13,44.67c0,0,44.23-18.15,59.57-24.54c5.88-2.56,25.82-10.74,25.82-10.74s9.2-3.58,8.44,5.11
	c-0.26,3.58-2.3,16.11-4.35,29.66c-3.07,19.17-6.39,40.14-6.39,40.14s-0.51,5.88-4.86,6.9c-4.35,1.02-11.5-3.58-12.78-4.6
	c-1.02-0.77-19.17-12.27-25.82-17.9c-1.79-1.53-3.83-4.6,0.26-8.18c9.2-8.44,20.2-18.92,26.84-25.57c3.07-3.07,6.14-10.23-6.65-1.53
	C48.06,45.95,30.16,57.71,30.16,57.71s-4.09,2.56-11.76,0.26c-7.67-2.3-16.62-5.37-16.62-5.37S-4.35,48.76,6.13,44.67L6.13,44.67z"
	/>
</svg>
