<?xml version="1.0" encoding="utf-8"?>
<!-- Generator: Adobe Illustrator 27.0.0, SVG Export Plug-In . SVG Version: 6.00 Build 0)  -->
<svg version="1.1" id="Layer_1" xmlns="http://www.w3.org/2000/svg" xmlns:xlink="http://www.w3.org/1999/xlink" x="0px" y="0px"
	 viewBox="0 0 100 100" style="enable-background:new 0 0 100 100;" xml:space="preserve">
<style type="text/css">
	.st0{fill:#232323;}
</style>
<g>
	<g>
		<path class="st0" d="M20.24,50c0,16.41,13.35,29.76,29.76,29.76c16.41,0,29.76-13.35,29.76-29.76c0-16.41-13.35-29.76-29.76-29.76
			C33.59,20.24,20.24,33.59,20.24,50z M70.73,48.19c1,11.46-7.48,21.55-18.93,22.55c-11.45,1-21.55-7.48-22.54-18.93
			c-1-11.45,7.47-21.55,18.93-22.54C59.65,28.27,69.74,36.74,70.73,48.19z"/>
		<path class="st0" d="M90.81,66.45l4.92-0.19c1.15-0.05,2.33-0.99,2.63-2.1l1.62-7.79c0.17-1.14-0.54-2.47-1.57-2.97l-4.43-2.15
			c-1.03-0.5-1.89-1.85-1.9-2.99c0,0-0.01-0.57-0.12-1.92c-0.04-0.46-0.04-0.46-0.04-0.46c-0.06-0.5,0.68-1.42,1.65-2.03l4.17-2.63
			c0.97-0.61,1.52-2.02,1.23-3.13l-2.47-7.55c-0.42-1.06-1.7-1.87-2.85-1.79l-4.93,0.36c-1.14,0.08-2.5-0.54-3.02-1.39
			c-0.52-0.85-1.58-3.81-1.05-4.82l2.29-4.36c0.53-1.02,0.31-2.51-0.5-3.32l-5.93-5.3c-0.9-0.71-2.41-0.77-3.36-0.13l-4.08,2.77
			c-0.95,0.64-2.44,0.78-3.3,0.3c-0.87-0.47-3.27-2.52-3.32-3.66l-0.19-4.92c-0.04-1.15-0.99-2.33-2.09-2.63l-7.79-1.62
			c-1.13-0.17-2.47,0.54-2.97,1.57l-2.15,4.44c-0.5,1.03-1.85,1.89-2.99,1.91c0,0-0.57,0.01-1.92,0.12
			C45.88,8.1,45.88,8.1,45.88,8.1c-0.5,0.06-1.42-0.68-2.03-1.65l-2.64-4.18c-0.61-0.97-2.02-1.52-3.13-1.23l-7.56,2.47
			c-1.07,0.42-1.87,1.7-1.79,2.85l0.36,4.93c0.08,1.14-0.54,2.5-1.39,3.02c-0.85,0.52-3.8,1.58-4.82,1.05l-4.36-2.29
			c-1.01-0.53-2.51-0.31-3.32,0.5l-5.3,5.93c-0.71,0.9-0.77,2.41-0.12,3.36l2.77,4.09c0.64,0.95,0.78,2.43,0.3,3.3
			c-0.48,0.87-2.52,3.27-3.66,3.32l-4.92,0.19c-1.14,0.05-2.33,0.99-2.63,2.09l-1.62,7.79c-0.17,1.13,0.54,2.47,1.57,2.97l4.44,2.15
			c1.03,0.5,1.89,1.85,1.9,2.99c0,0,0.01,0.58,0.13,1.92c0.04,0.47,0.04,0.47,0.04,0.47c0.06,0.5-0.68,1.42-1.65,2.03l-4.18,2.63
			c-0.97,0.61-1.52,2.02-1.23,3.13l2.47,7.55c0.42,1.06,1.7,1.87,2.85,1.79l4.93-0.36c1.14-0.08,2.5,0.54,3.02,1.39
			c0.52,0.85,1.58,3.81,1.05,4.82l-2.29,4.36c-0.53,1.01-0.31,2.51,0.5,3.32l5.93,5.3c0.9,0.71,2.41,0.77,3.36,0.12l4.08-2.77
			c0.95-0.64,2.43-0.78,3.3-0.3c0.87,0.48,3.27,2.52,3.32,3.66l0.19,4.92c0.04,1.14,0.99,2.33,2.09,2.63l7.79,1.62
			c1.13,0.17,2.47-0.54,2.97-1.57l2.15-4.44c0.5-1.03,1.85-1.89,2.99-1.91c0,0,0.57-0.01,1.92-0.12c0.46-0.04,0.46-0.04,0.46-0.04
			c0.5-0.07,1.42,0.67,2.03,1.64l2.64,4.18c0.61,0.97,2.02,1.53,3.13,1.23l7.56-2.47c1.06-0.42,1.87-1.7,1.79-2.85l-0.36-4.93
			c-0.08-1.14,0.54-2.5,1.39-3.02c0.85-0.52,3.8-1.58,4.82-1.05l4.36,2.29c1.01,0.53,2.51,0.31,3.32-0.5l5.3-5.93
			c0.71-0.9,0.77-2.41,0.13-3.36l-2.77-4.08c-0.64-0.95-0.78-2.43-0.3-3.3C87.62,68.9,89.66,66.49,90.81,66.45z M50,83.91
			C31.3,83.91,16.09,68.7,16.09,50c0-18.7,15.21-33.91,33.91-33.91c18.7,0,33.91,15.21,33.91,33.91C83.91,68.7,68.7,83.91,50,83.91z
			"/>
	</g>
</g>
</svg>
