<?xml version="1.0" encoding="utf-8"?>
<!-- Generator: Adobe Illustrator 27.0.0, SVG Export Plug-In . SVG Version: 6.00 Build 0)  -->
<svg version="1.1" id="Layer_1" xmlns="http://www.w3.org/2000/svg" xmlns:xlink="http://www.w3.org/1999/xlink" x="0px" y="0px"
	 viewBox="0 0 100 100" style="enable-background:new 0 0 100 100;" xml:space="preserve">
<style type="text/css">
	.st0{fill-rule:evenodd;clip-rule:evenodd;fill:#232323;}
</style>
<g>
	<g>
		<path class="st0" d="M70.69,59.04h-3.81c-1.04,0-1.89,0.85-1.89,1.89v1.71c0,1.04,0.85,1.89,1.89,1.89h3.81
			c1.04,0,1.89-0.85,1.89-1.89v-1.71C72.58,59.89,71.73,59.04,70.69,59.04z"/>
		<path class="st0" d="M89.03,22.02h-1.34c-0.56-5.53-5.23-9.85-10.91-9.85H10.97C4.91,12.17,0,17.08,0,23.14v43.87
			c0,6.06,4.91,10.97,10.97,10.97h1.34c0.56,5.53,5.23,9.85,10.91,9.85l65.81,0c6.06,0,10.97-4.91,10.97-10.97V32.99
			C100,26.93,95.09,22.02,89.03,22.02z M89.03,27.5c3.03,0,5.48,2.46,5.48,5.49v5.66H17.73v-5.66c0-3.03,2.46-5.48,5.48-5.48
			L89.03,27.5z M12.25,72.5h-1.28c-3.03,0-5.48-2.46-5.48-5.48V42.33h6.76V72.5z M13.08,28.79H5.48v-5.66
			c0-3.03,2.46-5.48,5.48-5.48l65.81,0c2.64,0,4.85,1.87,5.37,4.37H23.22C18.64,22.02,14.73,24.82,13.08,28.79z M89.03,82.35H23.22
			c-3.03,0-5.48-2.46-5.48-5.48V52.18h76.78l0,24.68C94.52,79.89,92.06,82.35,89.03,82.35z"/>
		<path class="st0" d="M59.51,59.04H25.45c-1.04,0-1.89,0.85-1.89,1.89v1.71c0,1.04,0.85,1.89,1.89,1.89h34.06
			c1.04,0,1.89-0.85,1.89-1.89v-1.71C61.39,59.89,60.55,59.04,59.51,59.04z"/>
	</g>
</g>
</svg>
