<?xml version="1.0" encoding="utf-8"?>
<!-- Generator: Adobe Illustrator 27.0.0, SVG Export Plug-In . SVG Version: 6.00 Build 0)  -->
<svg version="1.1" id="Layer_1" xmlns="http://www.w3.org/2000/svg" xmlns:xlink="http://www.w3.org/1999/xlink" x="0px" y="0px"
	 viewBox="0 0 620.98 285.11" style="enable-background:new 0 0 620.98 285.11;" xml:space="preserve">
<style type="text/css">
	.st0{fill:#FFFFFF;}
</style>
<g>
	<path class="st0" d="M119.18,1.25c2.78-0.56,5.6-0.9,8.46-1.05C130.49,0.07,133.32,0,136.1,0c11.7,0,21.9,1.71,30.6,5.12
		c8.7,3.41,16.08,7.94,22.14,13.58c6.06,5.64,10.86,12.05,14.41,19.22c3.55,7.17,5.88,14.45,7,21.83
		c1.67,10.44,1.53,20.4-0.42,29.87c-1.95,9.47-5.22,18.24-9.82,26.32c-4.6,8.08-10.24,15.49-16.92,22.24
		c-6.68,6.76-13.93,12.71-21.72,17.86c-7.8,5.15-15.91,9.47-24.33,12.95c-8.43,3.48-16.68,6.06-24.75,7.73
		c4.45,5.85,9.78,12.29,15.98,19.32c6.19,7.03,12.95,13.58,20.26,19.63c7.31,6.06,15.04,11.14,23.18,15.25
		c8.15,4.1,16.53,6.16,25.17,6.16c3.06,0,6.68-0.42,10.86-1.25c0.97,0,1.57,1.6,1.77,4.81c0.21,3.2,0.07,6.79-0.42,10.76
		c-0.49,3.97-1.39,7.66-2.72,11.07c-1.33,3.41-3.03,5.25-5.12,5.53c-12.11-0.7-23.26-3.94-33.42-9.71
		c-10.17-5.78-19.5-12.95-27.99-21.51c-8.5-8.56-16.29-17.93-23.39-28.09c-7.1-10.16-13.65-19.91-19.64-29.24l-0.63-0.63h-3.13
		c-0.83,0-1.64-0.03-2.4-0.1c-0.77-0.07-1.5-0.17-2.19-0.31c-2.92,13.23-5.12,25.62-6.58,37.18c-1.46,11.56-2.06,21.72-1.78,30.5
		c-0.42,0.55-1.77,0.1-4.07-1.36c-2.3-1.46-4.77-3.27-7.41-5.43c-2.65-2.16-5.09-4.42-7.31-6.79c-2.23-2.37-3.48-4.18-3.76-5.43
		c-0.84-7.52-0.84-16.19,0-26c0.84-9.82,2.23-20.37,4.18-31.65c-6.27-3.62-11.52-8.04-15.77-13.26c-4.25-5.22-7.21-10.97-8.88-17.23
		l0.21,0.42c-2.09-5.57,1.11-10.51,9.61-14.83c2.92,7.1,5.88,12.92,8.88,17.44c2.99,4.53,6.09,8.18,9.3,10.97
		c2.51-11.7,5.43-23.53,8.77-35.51c3.34-11.97,6.82-23.6,10.44-34.88c3.62-11.28,7.34-21.96,11.17-32.06
		c3.83-10.09,7.55-19.04,11.18-26.84c-7.8,3.34-15.32,8.25-22.56,14.73c-7.24,6.47-13.96,13.89-20.16,22.25
		c-6.2,8.36-11.73,17.2-16.61,26.53c-4.88,9.33-8.91,18.49-12.11,27.47c-3.21,8.98-5.4,17.44-6.58,25.38
		c-1.18,7.94-1.15,14.55,0.1,19.84c0.55,2.51-0.45,3.62-3.03,3.34c-2.58-0.28-5.64-1.49-9.19-3.66c-3.55-2.16-6.93-5.12-10.13-8.88
		c-3.2-3.76-5.15-7.8-5.85-12.11c-0.28-1.25-0.45-2.54-0.52-3.87c-0.07-1.32,0.04-2.61,0.31-3.86v0.21
		c1.39-15.88,5.26-31.4,11.59-46.58c6.33-15.18,14.69-28.79,25.06-40.84C47.36,31.51,59.55,21.65,73.54,14
		c14-7.66,29.35-11.91,46.06-12.74H119.18z M123.36,19.43c-2.51,0.28-5.01,0.7-7.52,1.25c2.23,0.98,4.66,2.37,7.31,4.18
		c2.64,1.81,5.04,3.86,7.21,6.16c2.16,2.3,3.9,4.74,5.22,7.31c1.32,2.58,1.77,5.05,1.36,7.41c-4.6,7.66-8.98,16.05-13.16,25.17
		c-4.18,9.12-8.15,18.62-11.91,28.51c-3.76,9.89-7.28,20.05-10.55,30.49c-3.27,10.45-6.16,20.75-8.67,30.92
		c7.1-0.42,14.34-1.95,21.72-4.6c7.38-2.64,14.48-6.27,21.3-10.86c6.82-4.6,13.19-9.99,19.11-16.19
		c5.92-6.19,10.97-12.98,15.14-20.36c4.18-7.38,7.24-15.25,9.19-23.6c1.95-8.36,2.44-16.99,1.46-25.9c-0.7-3.9-2.13-8.18-4.28-12.85
		c-2.16-4.66-5.43-8.98-9.82-12.95c-4.39-3.97-10.06-7.31-17.02-10.03C142.51,20.78,133.81,19.43,123.36,19.43z"/>
	<path class="st0" d="M299.86,129.09c0,0.83-0.39,1.53-1.15,2.09c-0.77,0.56-1.74,0.94-2.92,1.15c-1.18,0.21-2.47,0.24-3.86,0.1
		c-1.39-0.14-2.65-0.42-3.76-0.84c2.23,1.25,4.52,2.75,6.89,4.49c2.37,1.74,4.42,3.59,6.16,5.53c1.74,1.95,3.13,4.01,4.18,6.16
		c1.04,2.16,1.49,4.21,1.36,6.16c-0.28,0.98-0.56,2.06-0.83,3.24c-0.28,1.19-0.56,2.4-0.84,3.66c-0.56,2.65-1.15,5.5-1.77,8.56
		c-0.63,3.07-1.19,6.06-1.67,8.98c-0.49,2.92-0.84,5.68-1.04,8.25c-0.21,2.58-0.18,4.77,0.1,6.58c0.14,0.28,0,0.63-0.42,1.04h1.46
		c3.62-1.39,6.89-3.69,9.82-6.89c2.92-3.2,5.57-6.86,7.94-10.97c2.37-4.11,4.49-8.49,6.37-13.16c1.88-4.66,3.66-9.15,5.33-13.47
		c1.11-2.09,1.88-3.97,2.3-5.64c0.42-0.7,1.43-0.87,3.03-0.52c1.6,0.35,3.24,1.01,4.91,1.98c1.67,0.98,3.13,2.13,4.39,3.45
		c1.25,1.33,1.67,2.47,1.25,3.45l-3.34,8.36v0.21c-3.2,8.22-6.75,16.33-10.65,24.33c-3.9,8.01-8.77,15.22-14.62,21.62
		c-0.98,1.12-2.16,2.33-3.55,3.66c-1.39,1.33-3.06,2.58-5.01,3.76c-1.95,1.18-4.11,2.16-6.47,2.92c-2.37,0.76-5.01,1.08-7.94,0.94
		c-6.82-0.56-12.25-2.89-16.29-7c-4.04-4.11-6.83-9.3-8.36-15.56c-4.18,5.85-8.81,10.86-13.89,15.04
		c-5.09,4.18-10.48,6.33-16.19,6.47c-5.43-0.56-10.13-2.06-14.1-4.49c-3.97-2.43-7.28-5.32-9.92-8.67
		c-2.64-3.34-4.7-6.93-6.16-10.76c-1.46-3.83-2.47-7.42-3.03-10.76c-0.42-3.06-0.63-5.57-0.63-7.52
		c-0.28-5.15,0.21-10.79,1.46-16.92c1.25-6.13,3.06-12.25,5.43-18.38c2.37-6.13,5.36-12.04,8.98-17.75
		c3.62-5.71,7.66-10.79,12.11-15.25c4.45-4.45,9.36-8,14.73-10.65c5.36-2.64,11.1-3.97,17.23-3.97c1.81,0,3.62,0.14,5.43,0.42
		c1.81,0.28,3.76,0.7,5.85,1.25c3.62,1.12,6.72,2.89,9.29,5.33c2.58,2.44,4.7,5.29,6.37,8.56c1.67,3.27,2.99,6.76,3.97,10.44
		C298.74,121.81,299.44,125.46,299.86,129.09z M275.42,129.09c1.11-0.7,2.68-0.84,4.7-0.42c2.02,0.42,4.21,1.19,6.58,2.3
		c-0.98-0.7-1.46-1.46-1.46-2.3c0-0.42-0.1-0.91-0.31-1.46c-0.21-0.55-0.39-1.11-0.52-1.67c-0.28-1.39-0.7-2.85-1.25-4.39
		c-0.56-1.53-1.25-2.96-2.09-4.28c-0.83-1.32-1.85-2.4-3.03-3.24c-1.18-0.84-2.68-1.32-4.49-1.46c-5.15-0.14-9.85,1.71-14.1,5.53
		c-4.25,3.83-7.9,8.67-10.97,14.52c-3.06,5.85-5.57,12.11-7.52,18.8c-1.95,6.68-3.2,12.74-3.76,18.17
		c-0.28,1.53-0.39,3.45-0.31,5.74c0.07,2.3,0.31,4.56,0.73,6.79c0.42,3.2,1.46,5.85,3.13,7.94c1.67,2.09,4.52,2.58,8.56,1.46
		c1.81-0.55,3.9-2.16,6.27-4.8c2.37-2.64,4.73-5.74,7.1-9.3c2.36-3.55,4.63-7.31,6.79-11.28c2.16-3.97,3.93-7.55,5.33-10.76
		c0.7-4.31,1.29-8.46,1.77-12.43c0.49-3.97,0.59-7.34,0.31-10.13L275.42,129.09z"/>
	<path class="st0" d="M345.19,94.62c1.39-0.83,3.31-0.94,5.74-0.31c2.44,0.63,5.01,1.71,7.73,3.24c2.72,1.53,5.33,3.45,7.83,5.74
		c2.51,2.3,4.45,4.7,5.85,7.21c5.43-5.29,11.38-9.57,17.86-12.85c6.47-3.27,12.98-4.49,19.53-3.66c4.6,0.7,8.56,2.02,11.91,3.97
		c3.34,1.95,6.16,4.39,8.46,7.31c2.3,2.92,4.11,6.16,5.43,9.71c1.32,3.55,2.26,7.28,2.82,11.17c0.55,3.2,0.83,6.44,0.83,9.71
		c0,3.27-0.14,6.3-0.42,9.09c-1.12,8.64-3.34,17.1-6.68,25.38c-3.34,8.29-7.52,15.77-12.53,22.45c-5.01,6.68-10.79,12.22-17.34,16.6
		c-6.55,4.39-13.44,7-20.68,7.83c-6.55-0.14-12.15-1.6-16.81-4.39c-4.67-2.78-8.39-6.19-11.17-10.24c-0.28,0.7-0.52,1.43-0.73,2.19
		c-0.21,0.77-0.45,1.5-0.73,2.19c-1.81,5.71-3.55,11.7-5.22,17.96c-1.67,6.27-3.13,12.6-4.39,19.01c-1.25,6.4-2.16,12.88-2.72,19.42
		c-0.56,6.55-0.63,12.95-0.21,19.22c0.14,1.67-0.97,2.51-3.34,2.51c-2.37,0-5.01-0.59-7.94-1.77c-2.92-1.19-5.74-2.68-8.46-4.49
		c-2.72-1.81-4.35-3.69-4.91-5.64c-0.83-6.97-1.04-13.89-0.63-20.78c0.42-6.89,1.18-13.75,2.3-20.58
		c1.12-6.82,2.54-13.65,4.28-20.47c1.74-6.82,3.59-13.71,5.54-20.68c1.67-5.85,3.2-11.56,4.59-17.13
		c1.39-5.57,2.72-11.21,3.97-16.92v0.63c0.7-4.18,1.43-8.42,2.19-12.74c0.77-4.31,1.57-8.63,2.4-12.95
		c1.11-6.68,2.23-13.16,3.34-19.42C344,105.9,344.77,100.05,345.19,94.62z M361.69,172.32l-0.42,1.67l0.63,4.6
		c0.55,3.06,1.6,5.82,3.13,8.25c1.53,2.44,3.9,3.8,7.1,4.07c3.06,0.28,6.27-0.69,9.61-2.92c3.34-2.23,6.58-5.25,9.71-9.09
		c3.13-3.83,6.02-8.25,8.67-13.26c2.64-5.01,4.91-10.06,6.79-15.14c1.88-5.08,3.24-10.06,4.07-14.94c0.83-4.87,0.97-9.12,0.42-12.74
		c-0.7-4.31-2.79-6.54-6.27-6.68c-3.06-0.14-6.23,0.35-9.5,1.46c-3.27,1.12-6.51,2.75-9.71,4.91c-3.2,2.16-6.27,4.7-9.19,7.62
		c-2.92,2.92-5.5,6.13-7.73,9.61c-1.12,5.15-2.33,10.58-3.66,16.29c-1.33,5.71-2.47,11.14-3.45,16.29H361.69z"/>
	<path class="st0" d="M502.89,92.32c5.99,1.12,10.96,3.83,14.93,8.15c3.97,4.32,7,9.19,9.09,14.62c3.76,3.76,6.75,9.26,8.98,16.5
		c0.28,1.12,0.52,2.23,0.73,3.34c0.21,1.12,0.45,2.44,0.73,3.97c0.97,5.99,1.18,12.08,0.63,18.28c-0.56,6.2-1.74,12.19-3.55,17.96
		c-1.81,5.78-4.15,11.28-7,16.5c-2.86,5.22-6.16,9.75-9.92,13.58c-3.76,3.83-7.87,6.86-12.32,9.09c-4.46,2.23-9.19,3.34-14.2,3.34
		c-9.05-0.14-17.48-3.17-25.27-9.09c-7.8-5.92-13.79-14.94-17.96-27.05c-1.11-3.2-1.95-6.68-2.51-10.44
		c-0.97-5.99-1.04-12.15-0.21-18.49c0.84-6.34,2.4-12.5,4.7-18.49c2.3-5.99,5.25-11.63,8.88-16.92c3.62-5.29,7.73-9.85,12.32-13.68
		c4.6-3.83,9.57-6.75,14.94-8.77C491.22,92.71,496.9,91.91,502.89,92.32z M506.23,147.47c-1.25-0.42-2.3-1.39-3.13-2.92
		c-0.83-1.53-1.57-3.24-2.19-5.12c-0.63-1.88-1.12-3.87-1.46-5.95c-0.35-2.09-0.59-3.9-0.73-5.43c-0.14-1.81,0.17-3.58,0.94-5.33
		c0.76-1.74,1.67-3.27,2.72-4.6c1.04-1.32,2.16-2.47,3.34-3.45c1.18-0.97,2.12-1.67,2.82-2.09c-0.56-0.28-1.6-0.42-3.13-0.42
		c-2.92,0.28-6.06,1.5-9.4,3.65c-3.34,2.16-6.34,4.84-8.98,8.04c-2.51,3.48-4.7,7.35-6.58,11.59c-1.88,4.25-3.34,8.67-4.39,13.26
		c-1.05,4.59-1.71,9.16-1.98,13.68c-0.28,4.53-0.07,8.74,0.63,12.64c0.69,5.29,2.33,9.71,4.91,13.26c2.58,3.55,6.23,5.47,10.97,5.74
		c5.01,0.28,9.61-1.67,13.79-5.85c4.18-4.18,7.66-9.4,10.44-15.66c2.78-6.27,4.73-13.02,5.85-20.26c1.11-7.24,1.18-13.79,0.21-19.63
		v-1.05c-1.12,0-2.23,0.45-3.34,1.36c-1.12,0.91-2.16,1.98-3.13,3.24c-0.98,1.25-1.74,2.58-2.3,3.97c-0.56,1.39-0.83,2.65-0.83,3.76
		L506.23,147.47z"/>
	<path class="st0" d="M593.75,102.98c-0.84,2.65-1.95,6.27-3.34,10.86c-1.39,4.59-2.89,9.71-4.49,15.35
		c-1.6,5.64-3.2,11.56-4.8,17.75c-1.6,6.2-3,12.19-4.18,17.96c-1.18,5.78-2.06,11.11-2.61,15.98c-0.56,4.88-0.56,8.77,0,11.7v1.67
		h1.46c3.62-1.39,6.86-3.66,9.71-6.79c2.85-3.13,5.43-6.68,7.73-10.65c2.3-3.97,4.39-8.21,6.27-12.74
		c1.88-4.52,3.66-8.95,5.33-13.26h-0.21c0.42-1.25,0.94-2.47,1.57-3.66c0.63-1.18,1.15-2.33,1.57-3.45
		c0.28-0.84,1.18-1.05,2.72-0.63c1.53,0.42,3.13,1.12,4.8,2.09c1.67,0.98,3.1,2.13,4.28,3.45c1.18,1.33,1.63,2.47,1.36,3.45
		l-3.76,9.4c-3.2,7.94-6.79,15.98-10.76,24.12c-3.97,8.15-8.6,15.28-13.89,21.41c-0.98,1.12-2.23,2.33-3.76,3.66
		c-1.53,1.33-3.27,2.54-5.22,3.66c-1.95,1.11-4.11,2.05-6.47,2.82c-2.37,0.76-4.94,1.15-7.73,1.15c-6.27-0.28-11.17-2.86-14.73-7.73
		c-3.55-4.87-5.88-10.86-7-17.96c-0.28-1.53-0.45-3.17-0.52-4.91c-0.07-1.74-0.11-3.31-0.11-4.7c-0.28-13.92,1.18-27.47,4.39-40.63
		c3.2-13.16,6.68-26.14,10.44-38.96l5.43-17.54c1.39-5.29,2.78-10.68,4.18-16.19c1.39-5.5,2.68-10.89,3.87-16.19
		c1.18-5.29,2.16-10.41,2.92-15.35c0.76-4.94,1.36-9.5,1.78-13.68c1.81-1.11,4.42-1.08,7.83,0.1c3.41,1.19,6.72,3.03,9.92,5.54
		c3.2,2.51,5.99,5.4,8.35,8.67c2.37,3.27,3.41,6.44,3.13,9.5c-0.42,2.09-1.15,5.09-2.19,8.98c-1.04,3.9-2.23,8.29-3.55,13.16
		c-1.33,4.88-2.79,9.92-4.39,15.14c-1.6,5.22-3.1,10.13-4.49,14.73L593.75,102.98z"/>
</g>
</svg>
