<?xml version="1.0" encoding="utf-8"?>
<!-- Generator: Adobe Illustrator 27.0.0, SVG Export Plug-In . SVG Version: 6.00 Build 0)  -->
<svg version="1.1" id="Layer_1" xmlns="http://www.w3.org/2000/svg" xmlns:xlink="http://www.w3.org/1999/xlink" x="0px" y="0px"
	 viewBox="0 0 100 100" style="enable-background:new 0 0 100 100;" xml:space="preserve">
<style type="text/css">
	.st0{fill:none;}
	.st1{fill:#232323;}
</style>
<g>
	<path class="st0" d="M43.29,51.78c-0.17-0.17-0.45-0.17-0.62,0c-0.17,0.17-0.17,0.45,0,0.62l3.48,3.48c0.17,0.17,0.45,0.17,0.62,0
		c0.17-0.17,0.17-0.45,0-0.62L43.29,51.78z"/>
	<path class="st1" d="M99.12,37.86l-9.12-9.12c-1.08-1.08-2.81-1.17-4-0.21c-4.12,3.34-10.06,3.03-13.81-0.73
		c-3.76-3.76-4.07-9.69-0.73-13.81c0.97-1.19,0.88-2.92-0.21-4l-9.12-9.12c-1.17-1.17-3.06-1.17-4.23,0L0.88,57.9
		c-1.17,1.17-1.17,3.07,0,4.23l9.12,9.12c0,0,0,0,0,0c1.17,1.17,3.07,1.17,4.23,0c0.11-0.11,0.21-0.22,0.3-0.34
		c0.2-0.25,0.42-0.48,0.64-0.7c4.03-4.03,10.59-4.03,14.62,0c4.03,4.03,4.03,10.59,0,14.62c-0.25,0.25-0.53,0.5-0.81,0.73
		c-0.66,0.53-1.06,1.32-1.1,2.17c-0.04,0.85,0.27,1.67,0.87,2.27l9.12,9.12c1.17,1.17,3.07,1.17,4.24,0L99.12,42.1
		C100.29,40.93,100.29,39.03,99.12,37.86z M80.25,48.85c-1.22,1.22-3.2,1.22-4.42,0L51.15,24.16c-1.22-1.22-1.22-3.2,0-4.42
		c1.22-1.22,3.2-1.22,4.42,0l24.68,24.68C81.47,45.65,81.47,47.63,80.25,48.85z"/>
</g>
</svg>
