<?xml version="1.0" encoding="utf-8"?>
<!-- Generator: Adobe Illustrator 27.0.0, SVG Export Plug-In . SVG Version: 6.00 Build 0)  -->
<svg version="1.1" id="Layer_1" xmlns="http://www.w3.org/2000/svg" xmlns:xlink="http://www.w3.org/1999/xlink" x="0px" y="0px"
	 viewBox="0 0 100 100" style="enable-background:new 0 0 100 100;" xml:space="preserve">
<style type="text/css">
	.st0{fill-rule:evenodd;clip-rule:evenodd;fill:#FFFFFF;}
	.st1{fill:#232323;}
</style>
<rect class="st0" width="100" height="100"/>
<path class="st1" d="M66.55,55C74.64,49.62,80,40.43,80,30C80,13.46,66.54,0,50,0S20,13.46,20,30c0,10.43,5.36,19.62,13.45,25
	C15.13,61.76,2,79.35,2,100h8c0-22.06,17.94-40,40-40s40,17.94,40,40h8C98,79.35,84.87,61.76,66.55,55z M50,52
	c-12.13,0-22-9.87-22-22S37.87,8,50,8s22,9.87,22,22S62.13,52,50,52z"/>
</svg>
